<svg width="32" height="32" viewBox="0 0 32 32" fill="none" xmlns="http://www.w3.org/2000/svg">
<circle cx="16" cy="16" r="16" fill="#FB5779"/>
<path d="M25 10.6773C24.3235 10.9577 23.6081 11.1431 22.876 11.2276C23.6484 10.7868 24.2271 10.0932 24.505 9.27568C23.7792 9.68848 22.9847 9.97932 22.156 10.1356C21.6021 9.56165 20.8645 9.17963 20.0588 9.0494C19.2532 8.91918 18.4251 9.04812 17.7044 9.416C16.9837 9.78389 16.4112 10.3699 16.0767 11.0822C15.7422 11.7944 15.6646 12.5926 15.856 13.3515C14.3885 13.2806 12.953 12.9155 11.6428 12.28C10.3326 11.6445 9.17696 10.7527 8.251 9.66263C7.92622 10.2045 7.75557 10.8182 7.756 11.4426C7.75485 12.0225 7.9038 12.5937 8.18958 13.1052C8.47536 13.6168 8.88912 14.053 9.394 14.3748C8.80718 14.3595 8.2329 14.2091 7.72 13.9363V13.9793C7.7244 14.7918 8.02239 15.5779 8.56358 16.2046C9.10477 16.8314 9.85593 17.2603 10.69 17.4188C10.3689 17.5122 10.0356 17.5614 9.7 17.565C9.4677 17.5624 9.23598 17.5423 9.007 17.5048C9.24452 18.2037 9.70416 18.8145 10.322 19.2522C10.9398 19.6899 11.685 19.9327 12.454 19.9469C11.1555 20.9231 9.5523 21.4558 7.9 21.4603C7.59916 21.4612 7.29856 21.444 7 21.4087C8.68699 22.4494 10.6529 23.0018 12.661 22.9995C14.0467 23.0132 15.4214 22.763 16.7048 22.2635C17.9882 21.7639 19.1545 21.0251 20.1357 20.09C21.1168 19.155 21.8932 18.0426 22.4193 16.8177C22.9454 15.5928 23.2108 14.28 23.2 12.956C23.2 12.8098 23.2 12.655 23.2 12.5003C23.9062 11.9971 24.5153 11.3802 25 10.6773Z" fill="white"/>
</svg>
