<svg width="231" height="73" viewBox="0 0 231 73" fill="none" xmlns="http://www.w3.org/2000/svg">
<g clip-path="url(#clip0_129_2096)">
<path d="M55.082 73C47.0377 73 41.1993 67.6748 41.1993 60.3374C41.1993 59.8304 41.6082 59.4196 42.1122 59.4196C42.6166 59.4196 43.0252 59.8304 43.0252 60.3374C43.0252 66.7122 47.983 71.1644 55.082 71.1644C61.694 71.1644 67.1028 65.7248 67.1389 59.0382C67.169 53.4742 62.4802 49.8922 57.9299 49.6439C57.4264 49.6161 57.0405 49.1837 57.0679 48.6776C57.0951 48.1714 57.5235 47.788 58.0289 47.8108C63.4327 48.1059 69.0006 52.3902 68.9647 59.0482C68.9231 66.7413 62.6954 73 55.082 73Z" fill="white"/>
<path d="M33.7737 14.8128C33.2934 14.8128 32.8907 14.4356 32.8631 13.9473C32.7107 11.2602 30.4146 9.20574 27.7401 9.35166C27.2351 9.37902 26.8051 8.99391 26.7766 8.48776C26.748 7.9816 27.1329 7.54799 27.6362 7.51939C31.3145 7.30797 34.4764 10.1455 34.6861 13.8428C34.7147 14.349 34.3298 14.7826 33.8265 14.8112C33.8088 14.8124 33.7913 14.8128 33.7737 14.8128Z" fill="white"/>
<path d="M30.3694 54.8344C30.0552 54.8344 29.7494 54.6715 29.5798 54.3788C29.326 53.9406 29.4734 53.3789 29.909 53.1236C31.3159 52.2995 32.3111 50.9895 32.7115 49.435C33.0958 47.9426 32.8796 46.3972 32.1023 45.0835C30.4614 42.3094 26.8045 41.4128 23.9504 43.0838C23.5147 43.3383 22.956 43.1907 22.702 42.753C22.4482 42.3148 22.5956 41.7531 23.0313 41.4977C26.7467 39.3218 31.5207 40.5091 33.6717 44.145C34.6997 45.8828 34.9865 47.9248 34.4791 49.8951C33.9558 51.9272 32.6592 53.6372 30.8281 54.7096C30.6836 54.7942 30.5255 54.8344 30.3694 54.8344Z" fill="white"/>
<path d="M31.3743 43.7666C31.2065 43.7666 31.0366 43.7201 30.8846 43.6227C29.155 42.5151 27.9739 40.8022 27.5582 38.7999C27.1387 36.7778 27.5485 34.7068 28.7122 32.9678C28.9938 32.547 29.5608 32.4359 29.9793 32.7186C30.3976 33.0017 30.5086 33.5717 30.2271 33.9925C29.3404 35.3174 29.0274 36.8914 29.3457 38.4252C29.6597 39.9391 30.5547 41.235 31.8656 42.0748C32.2909 42.3472 32.4159 42.9143 32.145 43.3421C31.971 43.6165 31.6759 43.7666 31.3743 43.7666Z" fill="white"/>
<path d="M19.5795 27.7673C19.3799 27.7673 19.1789 27.7018 19.0107 27.5666C15.3434 24.6242 13.2403 20.1907 13.2403 15.4031C13.2403 14.8962 13.6491 14.4854 14.1532 14.4854C14.6573 14.4854 15.0661 14.8962 15.0661 15.4031C15.0661 19.629 16.919 23.5398 20.1496 26.1323C20.5438 26.4482 20.6081 27.0261 20.2937 27.422C20.1133 27.6491 19.8477 27.7673 19.5795 27.7673Z" fill="white"/>
<path d="M12.5956 48.7494C5.6504 48.7494 0 42.9226 0 35.7606C0 35.2536 0.408636 34.8428 0.912937 34.8428C1.41724 34.8428 1.82587 35.2536 1.82587 35.7606C1.82587 41.9103 6.65714 46.9138 12.5956 46.9138C13.7759 46.9138 14.935 46.7177 16.0407 46.331C16.5162 46.1635 17.0372 46.4172 17.2029 46.896C17.3687 47.3748 17.117 47.8979 16.6407 48.0646C15.3416 48.5189 13.9806 48.7494 12.5956 48.7494Z" fill="white"/>
<path d="M30.5088 72.2389C24.3607 72.2389 19.1659 67.6901 18.1122 61.5292H16.1879C11.127 61.5292 7.0095 57.2864 7.0095 52.0714C7.0095 50.5911 7.34226 49.1481 7.97954 47.8398C3.22971 45.9043 0 41.0931 0 35.7605C0 30.691 2.79902 26.1767 7.19938 24.0318C7.0732 23.5141 7.0095 22.9851 7.0095 22.4499C7.0095 18.8811 9.79655 15.9698 13.2481 15.9002C13.243 15.7339 13.2403 15.5681 13.2403 15.4031C13.2403 6.91 19.9387 0 28.1722 0C36.4058 0 43.1043 6.91 43.1043 15.4031C43.1043 15.8757 43.026 60.1658 43.0252 60.6131C43.0243 61.1192 42.6157 61.5292 42.1122 61.5292C42.1116 61.5292 42.1112 61.5292 42.1106 61.5292C41.6065 61.5284 41.1985 61.1167 41.1993 60.6098C41.2001 60.1625 41.2785 15.8741 41.2785 15.4031C41.2785 7.9219 35.399 1.83559 28.1722 1.83559C20.9454 1.83559 15.0661 7.9219 15.0661 15.4031C15.0661 15.8674 15.0894 16.3379 15.1352 16.8014C15.1633 17.0849 15.0587 17.3656 14.8523 17.5604C14.646 17.7561 14.3608 17.844 14.0813 17.7984C13.8171 17.7552 13.586 17.7345 13.3743 17.7345C10.8715 17.7345 8.83537 19.8499 8.83537 22.4499C8.83537 23.0494 8.94609 23.6401 9.16463 24.2051C9.34545 24.6727 9.11927 25.1996 8.65703 25.3882C4.50716 27.0804 1.82587 31.1516 1.82587 35.7605C1.82587 40.6798 5.01147 45.0794 9.57244 46.4598C9.84768 46.5431 10.0677 46.7516 10.1664 47.0227C10.2654 47.2938 10.2316 47.596 10.0751 47.8381C9.26401 49.0946 8.83537 50.5584 8.83537 52.0714C8.83537 56.2745 12.1337 59.6936 16.1879 59.6936H18.9053C19.3711 59.6936 19.7622 60.046 19.8129 60.5115C20.4265 66.1509 25.0248 70.4033 30.5088 70.4033C31.0129 70.4033 31.4217 70.8141 31.4217 71.3211C31.4217 71.8281 31.0129 72.2389 30.5088 72.2389Z" fill="white"/>
<path d="M54.3979 62.5258C52.8069 62.5258 51.1831 61.8725 49.9621 60.6795C48.3686 59.1224 47.7719 56.9337 48.3657 54.8241C49.4415 51.0036 52.1453 48.5147 55.7475 47.9282C55.0297 47.1845 54.2414 46.4623 53.4421 45.7294C50.2107 42.7683 46.5481 39.4122 47.4787 33.8681C48.902 25.3866 59.4152 20.9721 68.7563 21.6085C69.2594 21.6425 69.6397 22.0802 69.6057 22.586C69.5719 23.0917 69.1371 23.4731 68.6334 23.4399C60.0995 22.8575 50.5303 26.7169 49.2791 34.1732C48.5144 38.7303 51.5053 41.4712 54.6721 44.373C58.0769 47.4929 61.5975 50.7193 60.525 56.2924C59.7102 60.5277 57.3767 61.858 56.0583 62.2742C55.5218 62.4438 54.9618 62.5258 54.3979 62.5258ZM57.2058 49.6327C53.6953 49.7194 51.1187 51.7859 50.1227 55.324C49.7083 56.7956 50.1136 58.2677 51.2346 59.3629C52.4141 60.5157 54.0938 60.9717 55.5111 60.5232C57.1178 60.0158 58.2618 58.3895 58.7325 55.9437C59.2249 53.3852 58.4983 51.3979 57.2058 49.6327Z" fill="white"/>
<path d="M72.3771 47.7315C71.5106 47.7315 70.6475 47.637 69.8078 47.4422C66.577 46.6931 62.2983 44.3111 60.8718 40.0645C59.958 37.3443 59.9197 32.8291 64.9262 26.7644C71.3112 19.0294 69.2703 9.41954 63.6085 4.59675C63.2238 4.26927 63.1762 3.69015 63.5022 3.30338C63.8279 2.91662 64.4042 2.86853 64.7887 3.19643C69.6595 7.34517 72.1522 14.6399 69.822 21.7024C77.5981 22.5555 82.999 26.8162 84.0078 32.9647C84.7762 37.6494 83.5909 41.7476 80.6696 44.5035C78.4757 46.5737 75.4087 47.7315 72.3771 47.7315ZM69.1301 23.4783C68.4433 25.0001 67.5184 26.4982 66.3311 27.9367C62.7944 32.221 61.5048 36.2118 62.6016 39.4771C63.7873 43.007 67.4459 45.0104 70.2183 45.6538C73.4191 46.3963 77.0309 45.4196 79.4202 43.1653C81.1626 41.5212 83.0602 38.469 82.2062 33.2632C81.3036 27.7618 76.4258 24.12 69.1301 23.4783Z" fill="white"/>
<path d="M58.7911 18.4845C55.8251 18.4849 52.9615 17.2106 50.8212 14.863C49.11 12.9864 47.6115 9.49967 48.3657 6.27909C48.7704 4.54962 50.013 2.19544 53.6332 0.798435C57.4132 -0.659094 61.7468 0.38182 65.2266 3.58416C65.2804 3.63349 65.3268 3.68821 65.3662 3.74624C67.8712 6.46605 68.7938 9.48972 67.965 12.2871C67.1112 15.1681 64.5025 17.439 61.1567 18.2129C60.3687 18.3953 59.5762 18.4845 58.7911 18.4845ZM57.16 1.97532C56.1857 1.97532 55.2206 2.15233 54.2874 2.51215C51.9793 3.40259 50.585 4.81161 50.1429 6.69944C49.5677 9.15643 50.7258 12.0421 52.1671 13.6227C54.4575 16.1344 57.5843 17.155 60.7473 16.4242C63.4125 15.8073 65.5587 13.978 66.215 11.7631C66.8778 9.52661 66.0649 7.126 63.8642 4.82032C61.7792 2.94866 59.4444 1.97532 57.16 1.97532Z" fill="white"/>
<path d="M108.589 9.05127C110.533 9.05127 112.111 9.72573 113.321 11.0742C114.531 12.4232 115.136 13.9512 115.136 15.6582C115.136 17.391 114.522 18.9277 113.295 20.2675C112.068 21.6082 110.44 22.2781 108.411 22.2781H104.08V27.4126H99.8009V9.05127H108.589ZM108.309 18.3855C109.073 18.3855 109.702 18.1165 110.194 17.5788C110.686 17.0412 110.933 16.4135 110.933 15.6964C110.933 14.9796 110.699 14.3499 110.232 13.8077C109.765 13.2659 109.183 12.9948 108.487 12.9948H104.08V18.3855H108.309Z" fill="white"/>
<path d="M117.084 27.4126V9.05127H121.466V27.4126H117.084Z" fill="white"/>
<path d="M139.845 9.05127H143.972V27.4126H139.641V16.6569L134.266 24.0324L128.917 16.6569V27.4126H124.586V9.05127H128.7L134.292 17.2074L139.845 9.05127Z" fill="white"/>
<path d="M157.676 23.4305H166.261V27.4126H153.345V9.05127H157.676V23.4305Z" fill="white"/>
<path d="M173.839 27.7839C172.03 27.7839 170.5 27.1095 169.247 25.7606C167.995 24.412 167.369 22.7323 167.369 20.7222C167.369 18.7121 167.995 17.0344 169.247 15.6901C170.5 14.3457 172.03 13.6733 173.839 13.6733C175.418 13.6733 176.696 14.2069 177.673 15.2739V14.0448H181.85V27.4125H177.673V26.1834C176.662 27.2504 175.384 27.7839 173.839 27.7839ZM174.603 24.0576C175.529 24.0576 176.291 23.7463 176.889 23.1232C177.488 22.5002 177.787 21.6935 177.787 20.7031C177.787 19.7215 177.486 18.9256 176.883 18.315C176.28 17.7048 175.52 17.3997 174.603 17.3997C173.703 17.3997 172.96 17.7048 172.374 18.315C171.788 18.9256 171.495 19.7215 171.495 20.7031C171.495 21.7018 171.788 22.5105 172.374 23.1295C172.96 23.7484 173.703 24.0576 174.603 24.0576Z" fill="white"/>
<path d="M192.982 13.6733C194.791 13.6733 196.321 14.3457 197.573 15.6901C198.826 17.0344 199.452 18.7121 199.452 20.7222C199.452 22.7323 198.826 24.412 197.573 25.7605C196.321 27.1095 194.791 27.7839 192.982 27.7839C191.437 27.7839 190.159 27.2504 189.148 26.1834V27.4125H184.97V8.26978H189.148V15.2739C190.124 14.2068 191.403 13.6733 192.982 13.6733ZM192.218 24.0576C193.118 24.0576 193.861 23.7463 194.447 23.1232C195.033 22.5002 195.325 21.6935 195.325 20.7031C195.325 19.7215 195.035 18.9256 194.453 18.315C193.871 17.7048 193.126 17.3996 192.218 17.3996C191.292 17.3996 190.53 17.7048 189.931 18.315C189.333 18.9256 189.034 19.7215 189.034 20.7031C189.034 21.7018 189.333 22.5105 189.931 23.1294C190.53 23.7484 191.292 24.0576 192.218 24.0576Z" fill="white"/>
<path d="M103.387 38.2026C104.342 38.2026 105.104 38.521 105.675 39.1573C106.245 39.7936 106.53 40.5212 106.53 41.3399C106.53 42.1586 106.241 42.8841 105.662 43.5162C105.083 44.148 104.301 44.4643 103.316 44.4643H100.6V47.546H99.1611V38.2026H103.387ZM103.29 43.1543C103.847 43.1543 104.294 42.9744 104.631 42.6138C104.968 42.2531 105.137 41.8286 105.137 41.3399C105.137 40.8511 104.968 40.4246 104.631 40.0594C104.294 39.6946 103.871 39.5122 103.361 39.5122H100.6V43.1543H103.29Z" fill="white"/>
<path d="M113.154 46.7121C112.48 47.3853 111.634 47.7219 110.617 47.7219C109.599 47.7219 108.754 47.3853 108.082 46.7121C107.411 46.0389 107.075 45.1961 107.075 44.1842C107.075 43.1806 107.411 42.3424 108.082 41.6692C108.754 40.996 109.599 40.6589 110.617 40.6589C111.634 40.6589 112.48 40.9947 113.154 41.6659C113.828 42.337 114.165 43.1764 114.165 44.1842C114.165 45.1961 113.828 46.0389 113.154 46.7121ZM109.045 45.8034C109.455 46.2354 109.979 46.4513 110.617 46.4513C111.254 46.4513 111.779 46.2354 112.192 45.8034C112.604 45.371 112.81 44.8354 112.81 44.1971C112.81 43.5454 112.604 43.0048 112.192 42.5745C111.779 42.1447 111.254 41.9295 110.617 41.9295C109.979 41.9295 109.455 42.1447 109.045 42.5745C108.634 43.0048 108.429 43.5454 108.429 44.1971C108.429 44.8354 108.634 45.371 109.045 45.8034Z" fill="white"/>
<path d="M115.591 47.5461V37.8052H116.984V47.5461H115.591Z" fill="white"/>
<path d="M121.748 47.7219C120.802 47.7219 120.012 47.3853 119.379 46.7121C118.746 46.0389 118.429 45.1961 118.429 44.1842C118.429 43.1806 118.746 42.3424 119.379 41.6692C120.012 40.996 120.802 40.6589 121.748 40.6589C122.793 40.6589 123.595 41.0565 124.153 41.8516V40.8351H125.533V47.5461H124.153V46.5297C123.595 47.3248 122.793 47.7219 121.748 47.7219ZM121.975 46.4646C122.592 46.4646 123.114 46.2486 123.54 45.8162C123.965 45.3839 124.178 44.84 124.178 44.1842C124.178 43.5325 123.965 42.9916 123.54 42.5617C123.114 42.1318 122.592 41.9167 121.975 41.9167C121.339 41.9167 120.817 42.1297 120.409 42.5551C120.001 42.9808 119.797 43.5226 119.797 44.1809C119.797 44.8388 120.001 45.3839 120.409 45.8162C120.817 46.2486 121.339 46.4646 121.975 46.4646Z" fill="white"/>
<path d="M128.773 41.9038C128.976 41.4868 129.276 41.1729 129.671 40.9619C130.066 40.7514 130.529 40.683 131.061 40.7567V42.0601C130.327 41.9515 129.762 42.0957 129.366 42.4933C128.971 42.8908 128.773 43.5653 128.773 44.5162V47.5461H127.38V40.8351H128.773V41.9038Z" fill="white"/>
<path d="M133.641 39.4927C133.472 39.6577 133.265 39.7402 133.019 39.7402C132.772 39.7402 132.565 39.6577 132.397 39.4927C132.228 39.3277 132.144 39.1213 132.144 38.8738C132.144 38.6437 132.228 38.4439 132.397 38.2744C132.565 38.1048 132.772 38.0203 133.019 38.0203C133.265 38.0203 133.472 38.1048 133.641 38.2744C133.809 38.4439 133.894 38.6437 133.894 38.8738C133.894 39.1213 133.809 39.3277 133.641 39.4927ZM132.312 47.546V40.835H133.693V47.546H132.312Z" fill="white"/>
<path d="M137.089 46.36H141.055V47.546H135.229V46.6535L139.078 42.0206H135.307V40.835H140.938V41.7536L137.089 46.36Z" fill="white"/>
<path d="M145.171 47.7219C144.224 47.7219 143.435 47.3853 142.802 46.7121C142.169 46.0389 141.852 45.1961 141.852 44.1842C141.852 43.1806 142.169 42.3424 142.802 41.6692C143.435 40.996 144.224 40.6589 145.171 40.6589C146.216 40.6589 147.018 41.0565 147.575 41.8516V40.8351H148.956V47.5461H147.575V46.5297C147.018 47.3248 146.216 47.7219 145.171 47.7219ZM145.397 46.4646C146.015 46.4646 146.537 46.2486 146.963 45.8162C147.388 45.3839 147.601 44.84 147.601 44.1842C147.601 43.5325 147.388 42.9916 146.963 42.5617C146.537 42.1318 146.015 41.9167 145.397 41.9167C144.762 41.9167 144.24 42.1297 143.832 42.5551C143.424 42.9808 143.22 43.5226 143.22 44.1809C143.22 44.8388 143.424 45.3839 143.832 45.8162C144.24 46.2486 144.762 46.4646 145.397 46.4646Z" fill="white"/>
<path d="M154.549 46.1844L154.892 47.331C154.387 47.5441 153.896 47.6502 153.421 47.6502C152.721 47.6502 152.198 47.4484 151.853 47.0446C151.507 46.6404 151.334 46.0824 151.334 45.3699V42.073H150.116V40.8352H151.334V38.5938H152.715V40.8352H154.841V42.073H152.715V45.3699C152.715 46.0563 153.035 46.3996 153.674 46.3996C153.963 46.3996 154.255 46.3279 154.549 46.1844Z" fill="white"/>
<path d="M157.608 39.4927C157.439 39.6577 157.232 39.7402 156.986 39.7402C156.739 39.7402 156.532 39.6577 156.363 39.4927C156.195 39.3277 156.111 39.1213 156.111 38.8738C156.111 38.6437 156.195 38.4439 156.363 38.2744C156.532 38.1048 156.739 38.0203 156.986 38.0203C157.232 38.0203 157.439 38.1048 157.608 38.2744C157.776 38.4439 157.861 38.6437 157.861 38.8738C157.861 39.1213 157.776 39.3277 157.608 39.4927ZM156.279 47.546V40.835H157.659V47.546H156.279Z" fill="white"/>
<path d="M165.224 46.7121C164.549 47.3853 163.704 47.7219 162.686 47.7219C161.668 47.7219 160.824 47.3853 160.152 46.7121C159.48 46.0389 159.144 45.1961 159.144 44.1842C159.144 43.1806 159.48 42.3424 160.152 41.6692C160.824 40.996 161.668 40.6589 162.686 40.6589C163.704 40.6589 164.549 40.9947 165.224 41.6659C165.897 42.337 166.234 43.1764 166.234 44.1842C166.234 45.1961 165.897 46.0389 165.224 46.7121ZM161.115 45.8034C161.525 46.2354 162.048 46.4513 162.686 46.4513C163.323 46.4513 163.848 46.2354 164.261 45.8034C164.673 45.371 164.88 44.8354 164.88 44.1971C164.88 43.5454 164.673 43.0048 164.261 42.5745C163.848 42.1447 163.323 41.9295 162.686 41.9295C162.048 41.9295 161.525 42.1447 161.115 42.5745C160.704 43.0048 160.498 43.5454 160.498 44.1971C160.498 44.8354 160.704 45.371 161.115 45.8034Z" fill="white"/>
<path d="M171.354 40.6589C172.205 40.6589 172.86 40.9222 173.318 41.4474C173.776 41.973 174.005 42.6943 174.005 43.6109V47.5461H172.624V43.865C172.624 43.2697 172.485 42.805 172.207 42.4705C171.928 42.1359 171.518 41.9689 170.978 41.9689C170.395 41.9689 169.928 42.1728 169.578 42.5812C169.228 42.9895 169.053 43.5325 169.053 44.2103V47.5461H167.66V40.8351H169.053V41.8321C169.606 41.0503 170.373 40.6589 171.354 40.6589Z" fill="white"/>
<path d="M175.528 49.377L176.118 45.9172H177.615L176.656 49.377H175.528Z" fill="white"/>
<path d="M182.56 47.546V38.2026H184.025V47.546H182.56Z" fill="white"/>
<path d="M191.193 37.8052H192.573V47.5461H191.193V46.5296C190.635 47.3202 189.834 47.7177 188.788 47.7218C187.842 47.7218 187.052 47.3852 186.419 46.712C185.787 46.0388 185.47 45.196 185.47 44.1841C185.47 43.1805 185.787 42.3423 186.419 41.6691C187.052 40.9959 187.842 40.6589 188.788 40.6589C189.834 40.6589 190.635 41.0564 191.193 41.8515V37.8052ZM189.015 46.4645C189.633 46.4645 190.155 46.2486 190.58 45.8162C191.006 45.3838 191.219 44.84 191.219 44.1841C191.219 43.5325 191.006 42.9915 190.58 42.5616C190.155 42.1318 189.633 41.9166 189.015 41.9166C188.38 41.9166 187.858 42.1297 187.45 42.555C187.042 42.9807 186.838 43.5225 186.838 44.1808C186.838 44.8387 187.042 45.3838 187.45 45.8162C187.858 46.2486 188.38 46.4645 189.015 46.4645Z" fill="white"/>
<path d="M197.57 47.7219C196.516 47.7219 195.659 47.3973 195 46.7481C194.341 46.0986 194.012 45.2483 194.012 44.1971C194.012 43.1852 194.331 42.3424 194.968 41.6692C195.605 40.996 196.432 40.6589 197.447 40.6589C198.501 40.6589 199.332 40.9819 199.939 41.6269C200.546 42.2719 200.85 43.0828 200.85 44.0603C200.85 44.2298 200.835 44.4163 200.804 44.6207H195.38C195.423 45.1899 195.639 45.6479 196.028 45.9953C196.417 46.3431 196.939 46.5168 197.596 46.5168C198.517 46.5168 199.149 46.1562 199.495 45.4349L200.765 45.8129C200.528 46.3386 200.135 46.7884 199.586 47.1619C199.037 47.5354 198.365 47.7219 197.57 47.7219ZM195.38 43.6888L199.482 43.676C199.439 43.1416 199.238 42.7064 198.879 42.3693C198.521 42.0327 198.044 41.8644 197.447 41.8644C196.872 41.8644 196.397 42.0414 196.021 42.3955C195.645 42.7495 195.432 43.1806 195.38 43.6888Z" fill="white"/>
<path d="M205.97 40.6589C206.821 40.6589 207.476 40.9222 207.934 41.4474C208.392 41.973 208.621 42.6943 208.621 43.6109V47.5461H207.24V43.865C207.24 43.2697 207.101 42.805 206.822 42.4705C206.544 42.1359 206.134 41.9689 205.594 41.9689C205.011 41.9689 204.544 42.1728 204.194 42.5812C203.844 42.9895 203.669 43.5325 203.669 44.2103V47.5461H202.276V40.8351H203.669V41.8321C204.222 41.0503 204.989 40.6589 205.97 40.6589Z" fill="white"/>
<path d="M214.156 46.1844L214.499 47.331C213.994 47.5441 213.503 47.6502 213.028 47.6502C212.328 47.6502 211.805 47.4484 211.46 47.0446C211.114 46.6404 210.941 46.0824 210.941 45.3699V42.073H209.723V40.8352H210.941V38.5938H212.322V40.8352H214.448V42.073H212.322V45.3699C212.322 46.0563 212.642 46.3996 213.281 46.3996C213.57 46.3996 213.862 46.3279 214.156 46.1844Z" fill="white"/>
<path d="M217.215 39.4927C217.046 39.6577 216.839 39.7402 216.593 39.7402C216.346 39.7402 216.139 39.6577 215.97 39.4927C215.802 39.3277 215.718 39.1213 215.718 38.8738C215.718 38.6437 215.802 38.4439 215.97 38.2744C216.139 38.1048 216.346 38.0203 216.593 38.0203C216.839 38.0203 217.046 38.1048 217.215 38.2744C217.383 38.4439 217.468 38.6437 217.468 38.8738C217.468 39.1213 217.383 39.3277 217.215 39.4927ZM215.886 47.546V40.835H217.266V47.546H215.886Z" fill="white"/>
<path d="M222.905 46.1844L223.248 47.331C222.743 47.5441 222.252 47.6502 221.777 47.6502C221.077 47.6502 220.554 47.4484 220.209 47.0446C219.863 46.6404 219.69 46.0824 219.69 45.3699V42.073H218.472V40.8352H219.69V38.5938H221.071V40.8352H223.197V42.073H221.071V45.3699C221.071 46.0563 221.391 46.3996 222.03 46.3996C222.319 46.3996 222.611 46.3279 222.905 46.1844Z" fill="white"/>
<path d="M229.509 40.835H231L226.936 50.3479H225.504L226.748 47.3959L223.696 40.835H225.212L227.442 45.826L229.509 40.835Z" fill="white"/>
<path d="M102.071 64.81C101.125 64.81 100.335 64.4734 99.7024 63.8002C99.0694 63.127 98.7529 62.2842 98.7529 61.2723C98.7529 60.2687 99.0694 59.4305 99.7024 58.7573C100.335 58.0841 101.125 57.7471 102.071 57.7471C103.117 57.7471 103.918 58.1446 104.476 58.9397V57.9233H105.856V64.6343H104.476V63.6178C103.918 64.4129 103.117 64.81 102.071 64.81ZM102.298 63.5527C102.916 63.5527 103.438 63.3368 103.863 62.9044C104.289 62.472 104.502 61.9281 104.502 61.2723C104.502 60.6207 104.289 60.0797 103.863 59.6498C103.438 59.2199 102.916 59.0048 102.298 59.0048C101.663 59.0048 101.141 59.2179 100.733 59.6432C100.325 60.0689 100.12 60.6107 100.12 61.269C100.12 61.9269 100.325 62.472 100.733 62.9044C101.141 63.3368 101.663 63.5527 102.298 63.5527Z" fill="white"/>
<path d="M111.398 57.7471C112.249 57.7471 112.903 58.0103 113.361 58.5355C113.819 59.0612 114.048 59.7825 114.048 60.699V64.6343H112.668V60.9531C112.668 60.3579 112.529 59.8932 112.25 59.5586C111.971 59.2241 111.562 59.057 111.022 59.057C110.438 59.057 109.972 59.261 109.622 59.6693C109.272 60.0776 109.097 60.6207 109.097 61.2984V64.6343H107.703V57.9233H109.097V58.9202C109.65 58.1384 110.417 57.7471 111.398 57.7471Z" fill="white"/>
<path d="M121.151 54.8933H122.532V64.6342H121.151V63.6178C120.594 64.4083 119.793 64.8058 118.747 64.81C117.801 64.81 117.011 64.4734 116.378 63.8002C115.745 63.1269 115.429 62.2842 115.429 61.2723C115.429 60.2687 115.745 59.4305 116.378 58.7573C117.011 58.084 117.801 57.747 118.747 57.747C119.793 57.747 120.594 58.1446 121.151 58.9397V54.8933ZM118.974 63.5527C119.592 63.5527 120.114 63.3367 120.54 62.9043C120.965 62.472 121.178 61.9281 121.178 61.2723C121.178 60.6206 120.965 60.0796 120.54 59.6498C120.114 59.2199 119.592 59.0047 118.974 59.0047C118.339 59.0047 117.817 59.2178 117.409 59.6431C117.001 60.0689 116.796 60.6107 116.796 61.269C116.796 61.9268 117.001 62.472 117.409 62.9043C117.817 63.3367 118.339 63.5527 118.974 63.5527Z" fill="white"/>
<path d="M135.611 55.291H136.991V64.6344H135.546V57.7994L132.357 62.2889L129.188 57.7994V64.6344H127.737V55.291H129.117L132.371 59.9886L135.611 55.291Z" fill="white"/>
<path d="M140.2 56.5811C140.031 56.7461 139.824 56.8286 139.578 56.8286C139.331 56.8286 139.124 56.7461 138.955 56.5811C138.787 56.4161 138.703 56.2097 138.703 55.9622C138.703 55.7321 138.787 55.5323 138.955 55.3628C139.124 55.1932 139.331 55.1086 139.578 55.1086C139.824 55.1086 140.031 55.1932 140.2 55.3628C140.368 55.5323 140.453 55.7321 140.453 55.9622C140.453 56.2097 140.368 56.4161 140.2 56.5811ZM138.871 64.6344V57.9234H140.251V64.6344H138.871Z" fill="white"/>
<path d="M144.685 64.81C143.924 64.81 143.253 64.6115 142.672 64.2139C142.091 63.8164 141.712 63.3334 141.535 62.7643L142.798 62.3928C142.924 62.7576 143.161 63.0598 143.508 63.2986C143.856 63.5374 144.261 63.6568 144.723 63.6568C145.138 63.6568 145.474 63.5689 145.731 63.3931C145.988 63.2169 146.117 63.003 146.117 62.7514C146.117 62.5471 146.05 62.3854 145.916 62.266C145.782 62.1466 145.562 62.0409 145.255 61.9497L143.459 61.4158C142.397 61.0941 141.865 60.5208 141.865 59.6954C141.865 59.1611 142.114 58.703 142.61 58.3208C143.107 57.9386 143.71 57.7471 144.419 57.7471C145.119 57.7471 145.725 57.9038 146.237 58.2163C146.749 58.5293 147.106 58.9376 147.31 59.4413L146.078 59.8061C145.944 59.5412 145.731 59.3186 145.44 59.1383C145.148 58.9584 144.803 58.868 144.406 58.868C144.069 58.868 143.789 58.9505 143.567 59.1155C143.344 59.2809 143.233 59.4695 143.233 59.6826C143.233 59.9777 143.473 60.2016 143.952 60.3537L145.728 60.8682C146.277 61.029 146.707 61.245 147.018 61.5165C147.329 61.788 147.484 62.1823 147.484 62.6992C147.484 63.3028 147.221 63.8056 146.693 64.2073C146.167 64.6094 145.497 64.81 144.685 64.81Z" fill="white"/>
<path d="M150.33 56.5811C150.161 56.7461 149.954 56.8286 149.707 56.8286C149.461 56.8286 149.253 56.7461 149.085 56.5811C148.916 56.4161 148.832 56.2097 148.832 55.9622C148.832 55.7321 148.916 55.5323 149.085 55.3628C149.253 55.1932 149.461 55.1086 149.707 55.1086C149.954 55.1086 150.161 55.1932 150.33 55.3628C150.498 55.5323 150.582 55.7321 150.582 55.9622C150.582 56.2097 150.498 56.4161 150.33 56.5811ZM149.001 64.6344V57.9234H150.381V64.6344H149.001Z" fill="white"/>
<path d="M155.968 57.7471C156.819 57.7471 157.474 58.0103 157.932 58.5355C158.39 59.0612 158.619 59.7825 158.619 60.699V64.6343H157.238V60.9531C157.238 60.3579 157.099 59.8932 156.821 59.5586C156.542 59.2241 156.133 59.057 155.592 59.057C155.009 59.057 154.542 59.261 154.192 59.6693C153.842 60.0776 153.667 60.6207 153.667 61.2984V64.6343H152.274V57.9233H153.667V58.9202C154.22 58.1384 154.987 57.7471 155.968 57.7471Z" fill="white"/>
<path d="M162.507 57.2001V57.9234H164.711V59.1612H162.507V64.6344H161.114V59.1612H159.786V57.9234H161.114V57.1739C161.114 56.4008 161.304 55.7981 161.684 55.3661C162.065 54.9338 162.618 54.7178 163.344 54.7178C163.892 54.7178 164.365 54.811 164.763 54.998L164.432 56.1318C164.139 55.9971 163.834 55.932 163.519 55.9361C162.844 55.932 162.507 56.3531 162.507 57.2001Z" fill="white"/>
<path d="M170.959 63.8002C170.285 64.4734 169.439 64.81 168.422 64.81C167.404 64.81 166.56 64.4734 165.887 63.8002C165.216 63.127 164.88 62.2842 164.88 61.2723C164.88 60.2687 165.216 59.4305 165.887 58.7573C166.56 58.0841 167.404 57.7471 168.422 57.7471C169.439 57.7471 170.285 58.0828 170.959 58.754C171.633 59.4251 171.97 60.2646 171.97 61.2723C171.97 62.2842 171.633 63.127 170.959 63.8002ZM166.85 62.8915C167.261 63.3235 167.784 63.5395 168.422 63.5395C169.059 63.5395 169.584 63.3235 169.996 62.8915C170.409 62.4592 170.615 61.9236 170.615 61.2852C170.615 60.6335 170.409 60.093 169.996 59.6627C169.584 59.2328 169.059 59.0176 168.422 59.0176C167.784 59.0176 167.261 59.2328 166.85 59.6627C166.44 60.093 166.234 60.6335 166.234 61.2852C166.234 61.9236 166.44 62.4592 166.85 62.8915Z" fill="white"/>
<path d="M174.789 58.9919C174.992 58.5749 175.291 58.2611 175.687 58.0501C176.082 57.8395 176.545 57.7711 177.077 57.8449V59.1482C176.343 59.0396 175.778 59.1839 175.382 59.5814C174.987 59.9789 174.789 60.6534 174.789 61.6044V64.6343H173.396V57.9232H174.789V58.9919Z" fill="white"/>
<path d="M186.19 57.7471C186.985 57.7471 187.619 58.0012 188.092 58.5094C188.565 59.0176 188.802 59.7215 188.802 60.6207V64.6343H187.408V60.8876C187.408 60.3102 187.283 59.8604 187.032 59.5391C186.782 59.2179 186.408 59.057 185.911 59.057C185.397 59.057 184.989 59.2436 184.689 59.6171C184.389 59.991 184.239 60.4926 184.239 61.1223V64.6343H182.858V60.8876C182.858 60.3102 182.736 59.8604 182.492 59.5391C182.248 59.2179 181.889 59.057 181.413 59.057C180.882 59.057 180.463 59.2523 180.156 59.6432C179.849 60.0341 179.696 60.5684 179.696 61.2462V64.6343H178.302V57.9233H179.696V58.8547C180.201 58.1164 180.901 57.7471 181.795 57.7471C182.768 57.7471 183.453 58.1297 183.85 58.8941C184.356 58.1297 185.135 57.7471 186.19 57.7471Z" fill="white"/>
<path d="M193.5 64.81C192.554 64.81 191.764 64.4734 191.131 63.8002C190.498 63.127 190.182 62.2842 190.182 61.2723C190.182 60.2687 190.498 59.4305 191.131 58.7573C191.764 58.0841 192.554 57.7471 193.5 57.7471C194.546 57.7471 195.347 58.1446 195.905 58.9397V57.9233H197.285V64.6343H195.905V63.6178C195.347 64.4129 194.546 64.81 193.5 64.81ZM193.727 63.5527C194.345 63.5527 194.867 63.3368 195.292 62.9044C195.718 62.472 195.931 61.9281 195.931 61.2723C195.931 60.6207 195.718 60.0797 195.292 59.6498C194.867 59.2199 194.345 59.0048 193.727 59.0048C193.092 59.0048 192.57 59.2179 192.162 59.6432C191.754 60.0689 191.55 60.6107 191.55 61.269C191.55 61.9269 191.754 62.472 192.162 62.9044C192.57 63.3368 193.092 63.5527 193.727 63.5527Z" fill="white"/>
<path d="M202.878 63.2726L203.222 64.4192C202.716 64.6323 202.226 64.7384 201.751 64.7384C201.051 64.7384 200.528 64.5365 200.182 64.1327C199.836 63.7286 199.664 63.1706 199.664 62.458V59.1611H198.446V57.9233H199.664V55.6819H201.044V57.9233H203.17V59.1611H201.044V62.458C201.044 63.1445 201.364 63.4877 202.004 63.4877C202.293 63.4877 202.585 63.416 202.878 63.2726Z" fill="white"/>
<path d="M205.938 56.5811C205.769 56.7461 205.561 56.8286 205.315 56.8286C205.069 56.8286 204.861 56.7461 204.693 56.5811C204.524 56.4161 204.44 56.2097 204.44 55.9622C204.44 55.7321 204.524 55.5323 204.693 55.3628C204.861 55.1932 205.069 55.1086 205.315 55.1086C205.561 55.1086 205.769 55.1932 205.938 55.3628C206.106 55.5323 206.19 55.7321 206.19 55.9622C206.19 56.2097 206.106 56.4161 205.938 56.5811ZM204.609 64.6344V57.9234H205.989V64.6344H204.609Z" fill="white"/>
<path d="M213.553 63.8002C212.879 64.4734 212.033 64.81 211.016 64.81C209.998 64.81 209.153 64.4734 208.481 63.8002C207.81 63.127 207.474 62.2842 207.474 61.2723C207.474 60.2687 207.81 59.4305 208.481 58.7573C209.153 58.0841 209.998 57.7471 211.016 57.7471C212.033 57.7471 212.879 58.0828 213.553 58.754C214.227 59.4251 214.564 60.2646 214.564 61.2723C214.564 62.2842 214.227 63.127 213.553 63.8002ZM209.444 62.8915C209.854 63.3235 210.378 63.5395 211.016 63.5395C211.653 63.5395 212.178 63.3235 212.59 62.8915C213.003 62.4592 213.209 61.9236 213.209 61.2852C213.209 60.6335 213.003 60.093 212.59 59.6627C212.178 59.2328 211.653 59.0176 211.016 59.0176C210.378 59.0176 209.854 59.2328 209.444 59.6627C209.033 60.093 208.828 60.6335 208.828 61.2852C208.828 61.9236 209.033 62.4592 209.444 62.8915Z" fill="white"/>
<path d="M219.684 57.7471C220.535 57.7471 221.189 58.0103 221.648 58.5355C222.106 59.0612 222.335 59.7825 222.335 60.699V64.6343H220.954V60.9531C220.954 60.3579 220.815 59.8932 220.536 59.5586C220.258 59.2241 219.848 59.057 219.308 59.057C218.724 59.057 218.258 59.261 217.908 59.6693C217.558 60.0776 217.383 60.6207 217.383 61.2984V64.6343H215.99V57.9233H217.383V58.9202C217.936 58.1384 218.703 57.7471 219.684 57.7471Z" fill="white"/>
</g>
<defs>
<clipPath id="clip0_129_2096">
<rect width="231" height="73" fill="white"/>
</clipPath>
</defs>
</svg>
